<?xml version="1.0" encoding="utf-8"?>
<!-- Generator: Adobe Illustrator 25.3.0, SVG Export Plug-In . SVG Version: 6.00 Build 0)  -->
<svg version="1.1" id="Capa_1" xmlns="http://www.w3.org/2000/svg" xmlns:xlink="http://www.w3.org/1999/xlink" x="0px" y="0px"
	 viewBox="0 0 20 20" style="enable-background:new 0 0 20 20;" xml:space="preserve">
<style type="text/css">
	.st0{fill:none;stroke:#7979B0;stroke-width:1.556;stroke-linecap:round;stroke-linejoin:round;stroke-miterlimit:10;}
</style>
<g>
	<rect x="3.38" y="6.7" class="st0" width="13.18" height="9.99"/>
	<g>
		<path class="st0" d="M3.41,6.7H2.29C2.28,5.63,2.28,4.81,2.28,4.42c0-0.06,0-0.19,0.06-0.35c0.01-0.04,0.15-0.38,0.5-0.56
			c0.21-0.1,0.41-0.1,0.47-0.1c0.49,0.01,3.09,0,6.67,0"/>
		<path class="st0" d="M16.59,6.7h1.12c0.01-1.07,0.01-1.89,0.01-2.28c0-0.06,0-0.19-0.06-0.35c-0.01-0.04-0.15-0.38-0.5-0.56
			c-0.21-0.1-0.41-0.1-0.47-0.1c-0.49,0.01-3.09,0-6.67,0"/>
	</g>
	<path class="st0" d="M11.68,10.53H8.23c-0.2,0-0.36-0.16-0.36-0.36V9.4c0-0.2,0.16-0.36,0.36-0.36h3.45c0.2,0,0.36,0.16,0.36,0.36v0.77
		C12.04,10.37,11.88,10.53,11.68,10.53z"/>
</g>
</svg>
