<?xml version="1.0" encoding="utf-8"?>
<!-- Generator: Adobe Illustrator 25.3.0, SVG Export Plug-In . SVG Version: 6.00 Build 0)  -->
<svg version="1.1" id="Capa_1" xmlns="http://www.w3.org/2000/svg" xmlns:xlink="http://www.w3.org/1999/xlink" x="0px" y="0px"
	 viewBox="0 0 20 20" style="enable-background:new 0 0 20 20;" xml:space="preserve">
<path d="M1.81,9.63l7.74-7.74C9.59,1.85,9.75,1.69,10,1.68c0.2-0.01,0.35,0.06,0.4,0.1c0.16,0.16,0.33,0.33,0.49,0.49
	c0.18,0.1,0.29,0.29,0.28,0.48c-0.01,0.14-0.08,0.24-0.11,0.28C9.1,4.98,7.14,6.94,5.17,8.9h12.85c0.14-0.01,0.28,0.05,0.34,0.16
	c0.06,0.1,0.05,0.21,0.04,0.24c0,0.36,0,0.72,0,1.09c0,0.01,0.04,0.2-0.1,0.34c-0.13,0.12-0.29,0.11-0.31,0.1c-4.27,0-8.53,0-12.8,0
	l5.92,5.92c0.02,0.03,0.12,0.15,0.1,0.34c-0.02,0.16-0.12,0.26-0.14,0.29c-0.28,0.28-0.55,0.55-0.83,0.83
	c-0.03,0.03-0.16,0.12-0.34,0.12c-0.18,0-0.29-0.09-0.33-0.12c-4.51-4.52-7.75-7.77-7.85-7.85c-0.01-0.01-0.07-0.06-0.1-0.14
	c-0.02-0.06-0.02-0.11-0.02-0.14c0-0.02,0-0.08,0.03-0.17C1.67,9.78,1.75,9.69,1.81,9.63z"/>
</svg>
