<?xml version="1.0" encoding="utf-8"?>
<!-- Generator: Adobe Illustrator 25.3.0, SVG Export Plug-In . SVG Version: 6.00 Build 0)  -->
<svg version="1.1" id="Capa_1" xmlns="http://www.w3.org/2000/svg" xmlns:xlink="http://www.w3.org/1999/xlink" x="0px" y="0px"
	 viewBox="0 0 20 20" style="enable-background:new 0 0 20 20;" xml:space="preserve">
<style type="text/css">
	.st0{fill:#022754;}
</style>
<g>
	<path class="st0" d="M6.76,6.01l1.97-1.97c-0.4-0.4-0.79-0.79-1.19-1.19C7.53,2.84,7.39,2.62,7.13,2.6
		C6.92,2.59,6.78,2.72,6.76,2.74C6.33,3.17,5.9,3.59,5.48,4.02C5.45,4.04,5.27,4.2,5.27,4.45C5.26,4.73,5.45,4.91,5.48,4.93
		C5.9,5.29,6.33,5.65,6.76,6.01z"/>
	<path class="st0" d="M7.5,6.81l2.02-2.02l6.94,6.94v1.62c0.04,0.11,0.02,0.22-0.06,0.31c-0.08,0.09-0.21,0.11-0.32,0.07
		c-0.56,0-1.12,0-1.68,0L7.5,6.81z"/>
	<path class="st0" d="M5.66,6.41H1.28C1.21,6.43,1.02,6.5,0.89,6.7C0.8,6.84,0.78,6.97,0.78,7.04c0,3.2,0,6.39,0,9.59
		c-0.01,0.04-0.06,0.31,0.14,0.54c0.16,0.19,0.38,0.22,0.43,0.23c5.74,0,11.48,0,17.23,0c0.05,0,0.24,0.01,0.41-0.11
		c0.25-0.18,0.25-0.49,0.25-0.52c0-3.23,0-6.45,0-9.68c0.01-0.03,0.05-0.29-0.14-0.5c-0.21-0.24-0.53-0.18-0.54-0.18
		c-2,0-3.99,0-5.99,0l1.24,1.31h4.05v8.32H2.07V7.72h4.93L5.66,6.41z"/>
	<path class="st0" d="M4.78,10.03h4.61c0.44,0.47,0.88,0.95,1.32,1.42c-1.94-0.01-3.88-0.02-5.82-0.02c-0.01,0-0.2,0.04-0.34-0.09
		c-0.15-0.14-0.1-0.34-0.1-0.35c0-0.14,0-0.28,0-0.42c-0.01-0.03-0.04-0.19,0.06-0.34C4.6,10.08,4.75,10.03,4.78,10.03z"/>
	<path class="st0" d="M4.93,12.34h6.7c0.46,0.47,0.92,0.93,1.38,1.4c-2.64,0-5.28,0-7.92,0c-0.02,0-0.29,0.04-0.49-0.09
		c-0.22-0.14-0.15-0.34-0.15-0.35c0-0.14,0-0.28,0-0.42c-0.01-0.03-0.05-0.19,0.08-0.34C4.67,12.39,4.89,12.35,4.93,12.34z"/>
</g>
</svg>
