<?xml version="1.0" encoding="utf-8"?>
<!-- Generator: Adobe Illustrator 25.3.0, SVG Export Plug-In . SVG Version: 6.00 Build 0)  -->
<svg version="1.1" id="Capa_1" xmlns="http://www.w3.org/2000/svg" xmlns:xlink="http://www.w3.org/1999/xlink" x="0px" y="0px"
	 viewBox="0 0 20 20" style="enable-background:new 0 0 20 20;" xml:space="preserve">
<path d="M11.85,5.04l-5.79,5.79c-0.13,0.19-0.3,0.48-0.41,0.86c-0.12,0.4-0.14,0.75-0.13,0.99c-0.01,0.15-0.02,0.39,0.06,0.67
	c0.11,0.39,0.33,0.64,0.45,0.77c0.29,0.27,0.57,0.53,0.86,0.8c0.22,0.14,0.67,0.37,1.28,0.41c0.82,0.05,1.43-0.28,1.64-0.41
	c2.47-2.47,4.94-4.94,7.4-7.4c0.18-0.18,0.48-0.56,0.69-1.12c0.21-0.56,0.24-1.09,0.22-1.49c0.01-0.32-0.02-0.84-0.27-1.42
	c-0.15-0.37-0.35-0.64-0.51-0.84c-0.23-0.31-0.6-0.73-1.17-1.04c-0.47-0.26-0.88-0.35-1.16-0.41c-0.28-0.06-0.81-0.17-1.48-0.08
	c-0.68,0.09-1.2,0.33-1.53,0.52c-4.78,4.6-8.22,8.07-8.96,8.96c-0.47,0.57-0.72,1.15-0.74,1.21c-0.27,0.64-0.35,1.22-0.37,1.6
	c-0.04,0.24-0.07,0.55-0.05,0.91c0.04,0.5,0.17,0.9,0.29,1.16c0.08,0.2,0.18,0.43,0.32,0.67c0.17,0.3,0.36,0.55,0.53,0.75
	c0.21,0.29,0.56,0.71,1.09,1.09c0.57,0.41,1.12,0.6,1.48,0.7c0.45,0.14,1.04,0.25,1.72,0.22C8,18.88,8.49,18.72,8.6,18.69
	c0.51-0.17,0.86-0.39,1.2-0.61c0.3-0.19,0.69-0.47,1.12-0.88c2.2-2.2,4.4-4.4,6.6-6.6c0.02-0.02,0.16-0.11,0.2-0.29
	c0.04-0.2-0.08-0.35-0.1-0.37c-0.24-0.21-0.49-0.43-0.73-0.64c-0.04-0.02-0.2-0.07-0.38,0c-0.19,0.07-0.28,0.22-0.3,0.26
	c-2.42,2.42-4.84,4.84-7.25,7.25c-0.26,0.16-0.72,0.39-1.35,0.47c-0.5,0.06-0.91,0-1.18-0.06c-0.23-0.05-0.52-0.14-0.83-0.3
	c-0.4-0.21-0.69-0.45-0.88-0.64c-0.17-0.17-0.35-0.37-0.53-0.62c-0.13-0.18-0.23-0.35-0.32-0.51c-0.13-0.24-0.28-0.6-0.34-1.04
	c-0.05-0.41-0.01-0.75,0.03-0.97c0.04-0.23,0.11-0.52,0.26-0.85c0.17-0.39,0.38-0.68,0.54-0.88C7,8.76,9.65,6.11,12.3,3.46
	c0.13-0.16,0.48-0.53,1.07-0.72c0.69-0.21,1.26-0.04,1.45,0.03c0.33,0.25,0.67,0.5,1,0.75c0.16,0.14,0.45,0.43,0.56,0.89
	c0.05,0.22,0.06,0.39,0.05,0.51c-0.02,0.27-0.09,0.64-0.27,1.05c-0.29,0.65-0.72,1.06-0.97,1.26c-2.1,2.1-4.2,4.2-6.3,6.3
	c-0.06,0.03-0.5,0.26-1,0.06c-0.46-0.19-0.63-0.6-0.65-0.67c-0.04-0.07-0.17-0.33-0.11-0.67c0.06-0.35,0.29-0.55,0.35-0.61
	c1.81-1.81,3.63-3.63,5.44-5.44c0.03-0.02,0.23-0.14,0.26-0.38c0.02-0.15-0.04-0.26-0.06-0.3c-0.21-0.21-0.43-0.41-0.64-0.62
	c-0.06-0.02-0.2-0.05-0.37,0C11.98,4.94,11.9,5,11.85,5.04z"/>
</svg>
