<?xml version="1.0" encoding="utf-8"?>
<!-- Generator: Adobe Illustrator 25.3.0, SVG Export Plug-In . SVG Version: 6.00 Build 0)  -->
<svg version="1.1" id="Capa_1" xmlns="http://www.w3.org/2000/svg" xmlns:xlink="http://www.w3.org/1999/xlink" x="0px" y="0px"
	 viewBox="0 0 20 20" style="enable-background:new 0 0 20 20;" xml:space="preserve">
<style type="text/css">
	.st0{fill:#7979B0;}
</style>
<g>
	<path class="st0" d="M6.79,11.71c0,0.9,0,1.81,0,2.71c0.01,0.18,0.07,0.53,0.29,0.89c0.22,0.35,0.49,0.54,0.61,0.62
		c0.39,0.26,0.78,0.35,1,0.37c1.14,0,2.28,0,3.43,0l3.61,2.07c0.14,0.18,0.38,0.21,0.52,0.1c0.1-0.07,0.14-0.2,0.13-0.34
		c0-0.61,0-1.22,0-1.84h1.45c0.17-0.02,0.72-0.09,1.19-0.54c0.52-0.49,0.59-1.1,0.61-1.25c0-2,0-4.01,0-6.01
		c-0.02-0.16-0.07-0.43-0.24-0.72c-0.21-0.36-0.49-0.55-0.62-0.64c-0.38-0.25-0.76-0.32-0.97-0.34c-1.15,0-2.3,0-3.45,0v1.58h3.04
		c0.05,0,0.27,0,0.45,0.17c0.13,0.12,0.18,0.26,0.19,0.32c0,1.82,0,3.64,0,5.46c0.01,0.02,0.03,0.16-0.05,0.28
		c-0.11,0.16-0.3,0.16-0.31,0.16c-0.95,0-1.9,0-2.85,0v1.22l-2.21-1.27h-4.1v-3.72L8.01,9.95L6.79,11.71z"/>
	<path class="st0" d="M0.37,3.4c0.01-0.17,0.08-0.79,0.59-1.31c0.58-0.6,1.32-0.63,1.46-0.63c3.35,0,6.7,0,10.05,0
		c0.15,0,0.71,0.01,1.21,0.43c0.59,0.5,0.65,1.19,0.66,1.31c0,2.03,0,4.06,0,6.1c-0.02,0.17-0.09,0.73-0.56,1.2
		c-0.43,0.44-0.93,0.55-1.1,0.58c-1.39,0-2.77,0-4.16,0L6.8,11.73l-2.47,1.39c-0.1,0.13-0.26,0.19-0.41,0.16
		c-0.17-0.04-0.3-0.19-0.31-0.37c0-0.59,0-1.18,0-1.76H2.23c-0.15-0.01-0.86-0.09-1.39-0.71C0.47,9.99,0.39,9.51,0.37,9.32
		C0.37,7.34,0.37,5.37,0.37,3.4z M2.09,9.39c0.07,0.07,0.18,0.1,0.27,0.07h2.95v1.31l2.15-1.27c1.64,0,3.28,0,4.92,0
		c0.05-0.02,0.12-0.06,0.2-0.13c0.06-0.06,0.1-0.12,0.12-0.17c0-1.98,0-3.96,0-5.94c0-0.01,0.01-0.12-0.08-0.21
		c-0.08-0.08-0.18-0.07-0.2-0.07c-3.37,0-6.74,0-10.11,0C2.27,3,2.17,3.04,2.09,3.14C2.01,3.26,2.01,3.38,2.01,3.42v5.7
		C2.01,9.13,1.98,9.28,2.09,9.39z"/>
</g>
</svg>
