<?xml version="1.0" encoding="utf-8"?>
<!-- Generator: Adobe Illustrator 25.3.0, SVG Export Plug-In . SVG Version: 6.00 Build 0)  -->
<svg version="1.1" id="Capa_1" xmlns="http://www.w3.org/2000/svg" xmlns:xlink="http://www.w3.org/1999/xlink" x="0px" y="0px"
	 viewBox="0 0 20 20" style="enable-background:new 0 0 20 20;" xml:space="preserve">
<style type="text/css">
	.st0{fill:#A4A5E3;}
</style>
<g>
	<path class="st0" d="M4.89,8.51h3.51V3.42h1.64V1.96H8.26C8.21,1.95,7.64,1.88,7.24,2.31C6.92,2.64,6.92,3.05,6.92,3.13
		c0,1.31,0,2.63,0,3.94h-2.2c-0.06,0.01-0.82,0.1-1.17,0.8c-0.3,0.6-0.06,1.18-0.03,1.26c0.59,0.61,1.18,1.22,1.77,1.83H2.55
		c-0.08-0.02-0.7-0.12-1.2,0.31c-0.37,0.32-0.44,0.74-0.46,0.86c0,1.57,0,3.14,0,4.71c0.01,0.1,0.07,0.55,0.46,0.89
		c0.3,0.25,0.62,0.3,0.74,0.31c2.65,0,5.3,0,7.95,0v-1.49l-7.61,0.03v-4.14h4.37l2.26,2.26c0.09,0.07,0.4,0.3,0.86,0.31
		c0.49,0.01,0.83-0.24,0.91-0.31c-0.3-0.44-0.61-0.88-0.91-1.31L4.89,8.51z"/>
	<path class="st0" d="M15.11,8.51h-3.51V3.42H9.95V1.96h1.78c0.05-0.01,0.62-0.08,1.03,0.34c0.32,0.33,0.32,0.74,0.31,0.83
		c0,1.31,0,2.63,0,3.94h2.2c0.06,0.01,0.82,0.1,1.17,0.8c0.3,0.6,0.06,1.18,0.03,1.26c-0.59,0.61-1.18,1.22-1.77,1.83h2.74
		c0.08-0.02,0.7-0.12,1.2,0.31c0.37,0.32,0.44,0.74,0.46,0.86c0,1.57,0,3.14,0,4.71c-0.01,0.1-0.07,0.55-0.46,0.89
		c-0.3,0.25-0.62,0.3-0.74,0.31c-2.65,0-5.3,0-7.95,0v-1.49l7.61,0.03v-4.14h-4.37l-2.26,2.26c-0.09,0.07-0.4,0.3-0.86,0.31
		c-0.49,0.01-0.83-0.24-0.91-0.31c0.3-0.44,0.61-0.88,0.91-1.31L15.11,8.51z"/>
	<circle class="st0" cx="15.44" cy="14.45" r="0.74"/>
</g>
</svg>
