<svg id="Capa_1" data-name="Capa 1" xmlns="http://www.w3.org/2000/svg" viewBox="0 0 16.98 16.97">
    <defs>
        <style>
            .cls-1 {
                fill: #022754;
            }
        </style>
    </defs>
    <path class="cls-1"
        d="M18,6.89a1.59,1.59,0,0,1,.45.58,1.26,1.26,0,0,1,.09.44V17.2a1.41,1.41,0,0,1-1.56,1.28H2.76a1.39,1.39,0,0,1-.87-.4,1.43,1.43,0,0,1-.38-.88V8A1.78,1.78,0,0,1,1.83,7a1.94,1.94,0,0,1,1.28-.77V4.37a1.31,1.31,0,0,1,.28-.8,1.44,1.44,0,0,1,1-.48H6.87A4,4,0,0,1,9.74,1.52a4.07,4.07,0,0,1,3.32,1.57h2.4a1.47,1.47,0,0,1,1.47,1.35V6.25A3.93,3.93,0,0,1,18,6.89ZM7.38,12.09l1.45,1.17a2.11,2.11,0,0,0,1.08.32A2,2,0,0,0,11,13.27l1-.79L15.4,9.8V4.56H4.6V9.8ZM3,10.54v6.33H17V10.41L12.62,14a5.86,5.86,0,0,1-.94.66,3.5,3.5,0,0,1-1.55.51,3.52,3.52,0,0,1-1.81-.51,5.48,5.48,0,0,1-1-.71ZM13.19,7.17V6.63a.54.54,0,0,0-.54-.54H7.35a.54.54,0,0,0-.54.54v.54a.54.54,0,0,0,.54.54h5.3A.54.54,0,0,0,13.19,7.17Zm0,2.68V9.32a.55.55,0,0,0-.54-.55H7.35a.55.55,0,0,0-.54.55v.53a.54.54,0,0,0,.54.54h5.3A.54.54,0,0,0,13.19,9.85Z"
        transform="translate(-1.51 -1.51)" />
</svg>