<?xml version="1.0" encoding="utf-8"?>
<!-- Generator: Adobe Illustrator 25.3.0, SVG Export Plug-In . SVG Version: 6.00 Build 0)  -->
<svg version="1.1" id="Capa_1" xmlns="http://www.w3.org/2000/svg" xmlns:xlink="http://www.w3.org/1999/xlink" x="0px" y="0px"
	 viewBox="0 0 20 20" style="enable-background:new 0 0 20 20;" xml:space="preserve">
<style type="text/css">
	.st0{fill:none;stroke:#A4A5E3;stroke-width:1.556;stroke-linecap:round;stroke-linejoin:round;stroke-miterlimit:10;}
</style>
<path class="st0" d="M2.87,1.92H17.1c0.41-0.07,0.79,0.1,0.93,0.4c0.12,0.24,0.05,0.48,0.02,0.56c-2.04,2.1-4.09,4.19-6.13,6.29
	c0,2.63,0,5.27,0,7.9c0,0.05-0.01,0.55-0.43,0.85c-0.29,0.21-0.6,0.19-0.69,0.18c-0.79-0.56-1.57-1.13-2.36-1.69
	c-0.09-0.08-0.24-0.22-0.35-0.45c-0.14-0.29-0.14-0.55-0.13-0.67c-0.01-2.03-0.02-4.06-0.03-6.1L2.23,3.42
	C1.92,3.18,1.82,2.76,1.97,2.41C2.13,2.06,2.49,1.86,2.87,1.92z"/>
</svg>
