<?xml version="1.0" encoding="utf-8"?>
<!-- Generator: Adobe Illustrator 25.3.0, SVG Export Plug-In . SVG Version: 6.00 Build 0)  -->
<svg version="1.1" id="Capa_1" xmlns="http://www.w3.org/2000/svg" xmlns:xlink="http://www.w3.org/1999/xlink" x="0px" y="0px"
	 viewBox="0 0 20 20" style="enable-background:new 0 0 20 20;" xml:space="preserve">
<style type="text/css">
	.st0{fill:none;stroke:#7979B0;stroke-width:1.556;stroke-linecap:round;stroke-linejoin:round;stroke-miterlimit:10;}
</style>
<g>
	<path class="st0" d="M14.74,13.24c0,0.9,0,1.81,0,2.71c0.01,0.07,0.01,0.24-0.1,0.37c-0.09,0.11-0.21,0.14-0.39,0.19
		c-0.11,0.03-0.27,0.06-0.47,0.05c-3.89,0-7.79,0-11.68,0c-0.07-0.02-0.23-0.08-0.36-0.22c-0.19-0.2-0.21-0.44-0.21-0.51
		c0-2.72,0-5.45,0-8.17c0.03-0.08,0.12-0.32,0.38-0.49c0.2-0.13,0.39-0.15,0.48-0.15c0.85,0,1.71,0,2.56,0"/>
	<path class="st0" d="M5.19,4.04v8.04c0.01,0.1,0.06,0.34,0.26,0.57c0.18,0.22,0.39,0.31,0.49,0.34c3.89,0,7.77,0,11.66,0
		c0.06,0.01,0.28,0.03,0.49-0.11c0.27-0.18,0.31-0.48,0.32-0.53c0-2.16,0-4.31,0-6.47c0-0.07-0.03-0.31-0.21-0.51
		c-0.22-0.25-0.51-0.27-0.57-0.28c-1.88,0-3.76,0-5.64,0C11.32,4.49,10.66,3.87,10,3.26H5.98C5.9,3.26,5.67,3.3,5.47,3.49
		C5.24,3.7,5.2,3.97,5.19,4.04z"/>
</g>
</svg>
