<svg id="Capa_1" data-name="Capa 1" xmlns="http://www.w3.org/2000/svg" viewBox="0 0 19.82 11.8">
    <defs>
        <style>
            .cls-1 {
                fill: #6151C5;
            }
        </style>
    </defs>
    <path class="cls-1"
        d="M8.3,4.4a9.59,9.59,0,0,1,1.5-.3,5.17,5.17,0,0,1,1.7.3c1,.3,3.8,1.2,7.4,2.5a1.28,1.28,0,0,1,1,1,1.16,1.16,0,0,1-.8,1.2l-7.8,2.7A4.44,4.44,0,0,1,10,12a3.42,3.42,0,0,1-1.3-.2c-1-.2-3.8-1.2-7.7-2.6A1.47,1.47,0,0,1,.1,8,1.16,1.16,0,0,1,.8,7a6.89,6.89,0,0,0,.8-.3C4.9,5.5,7.3,4.7,8.3,4.4Zm.9,1.3C6.7,6.5,4.3,7.2,1.8,8a.1.1,0,1,0,0,.2c2.4.8,4.9,1.5,7.3,2.3a3.54,3.54,0,0,0,.6.1,3.18,3.18,0,0,0,.5,0,2.68,2.68,0,0,0,.33-.08L14.1,9.4c1.24-.38,2.47-.74,3.7-1.1l.1-.1c0-.2-.1-.2-.1-.2L14.3,6.9,10.55,5.7a1.86,1.86,0,0,0-.25-.08l-.15,0a1.94,1.94,0,0,0-.27,0,1.09,1.09,0,0,0-.32,0Z"
        transform="translate(-0.1 -4.1)" />
    <circle class="cls-1" cx="2" cy="6.9" r="0.9" />
    <path class="cls-1"
        d="M1.5,11.4a.62.62,0,0,1,0,.21,1.09,1.09,0,0,0-.05.14c0,.06,0,.12,0,.15-.08.55-.18,1.12-.31,1.72S.84,14.71.7,15.2a.35.35,0,0,0,.1.4.76.76,0,0,0,.5.2H3s.3,0,.4-.2a1.09,1.09,0,0,0,.1-.5c-.1-.9-.6-2.2-.8-3.4V10.2a.37.37,0,0,1,.1-.3c.1-.1.2-.2.3-.2a5,5,0,0,1,1-.61A2.19,2.19,0,0,1,4.47,9l.41-.11.55-.14C8.49,8.18,9.67,8,9.8,8h.12a.64.64,0,0,0,.28-.19,1,1,0,0,0,.1-.3.37.37,0,0,0-.2-.3c-.2-.2-.3-.1-.4-.1s-.3.1-.5.1c-1.9.4-3.8.7-5.7,1.1a2.39,2.39,0,0,0-.7.3,8.78,8.78,0,0,1-.8.7c-.1.1-.1.2-.2.3a.76.76,0,0,0-.1.4v.1C1.6,10.6,1.6,11,1.5,11.4Z"
        transform="translate(-0.1 -4.1)" />
    <path class="cls-1"
        d="M4.4,10.3c-.1,1-.3,2.1-.4,3.1a1.23,1.23,0,0,0,.1.8,1.11,1.11,0,0,0,.14.25,1.72,1.72,0,0,0,.36.35,2.64,2.64,0,0,0,.29.21,1.71,1.71,0,0,0,.51.19,10,10,0,0,0,1,.3,10.37,10.37,0,0,0,1.08.22c.43,0,.87.09,1.33.12l1,.06V14.4c-.59,0-1.23,0-1.9-.1-.44,0-.85-.09-1.25-.15a1.66,1.66,0,0,1-.73-.25,1.35,1.35,0,0,1-.32-.3,1,1,0,0,1-.21-.49,1.31,1.31,0,0,1,0-.31c.1-.7.1-1.4.2-2.1Z"
        transform="translate(-0.1 -4.1)" />
    <path class="cls-1"
        d="M14,10.7c.1.7.1,1.4.2,2.1a1.31,1.31,0,0,1,0,.31,1,1,0,0,1-.21.49,1.19,1.19,0,0,1-.33.3,1.63,1.63,0,0,1-.72.25c-.4.06-.82.11-1.25.15-.67.06-1.31.09-1.9.1v1.5l1-.06c.45,0,.9-.07,1.33-.12a10.92,10.92,0,0,0,1.08-.22c.36-.09.69-.19,1-.3a1.81,1.81,0,0,0,.51-.19A2.64,2.64,0,0,0,15,14.8a1.72,1.72,0,0,0,.36-.35,1.75,1.75,0,0,0,.14-.25,1.23,1.23,0,0,0,.1-.8c-.1-1-.3-2.1-.4-3.1Z"
        transform="translate(-0.1 -4.1)" />
</svg>