<?xml version="1.0" encoding="utf-8"?>
<!-- Generator: Adobe Illustrator 25.3.0, SVG Export Plug-In . SVG Version: 6.00 Build 0)  -->
<svg version="1.1" id="Capa_1" xmlns="http://www.w3.org/2000/svg" xmlns:xlink="http://www.w3.org/1999/xlink" x="0px" y="0px"
	 viewBox="0 0 20 20" style="enable-background:new 0 0 20 20;" xml:space="preserve">
	<defs>
        <style>
            .cls-1 {
                fill: #fff;
            }
        </style>
    </defs>
	<g>
		<rect class="cls-1" x="2.84" y="8.09" width="1.6" height="7.88"/>
		<path class="cls-1" d="M2.84,15.97L2.84,15.97c0-0.44,0.36-0.8,0.8-0.8h4.37c0.44,0,0.8,0.36,0.8,0.8v0c0,0.44-0.36,0.8-0.8,0.8H3.64
			C3.2,16.77,2.84,16.41,2.84,15.97z"/>
		<path class="cls-1" d="M8.22,10.8L8.22,10.8c0.44,0,0.8,0.36,0.8,0.8v4.37c0,0.44-0.36,0.8-0.8,0.8h0c-0.44,0-0.8-0.36-0.8-0.8V11.6
			C7.42,11.16,7.78,10.8,8.22,10.8z"/>
		<path class="cls-1" d="M11.71,12.35H8.19c-0.43,0-0.77-0.35-0.77-0.77v0c0-0.43,0.35-0.77,0.77-0.77h3.51c0.43,0,0.77,0.35,0.77,0.77v0
			C12.48,12,12.13,12.35,11.71,12.35z"/>
		<path class="cls-1" d="M11.68,10.8L11.68,10.8c0.44,0,0.8,0.36,0.8,0.8v4.37c0,0.44-0.36,0.8-0.8,0.8h0c-0.44,0-0.8-0.36-0.8-0.8V11.6
			C10.88,11.16,11.24,10.8,11.68,10.8z"/>
		<path class="cls-1" d="M10.88,15.97L10.88,15.97c0-0.44,0.36-0.8,0.8-0.8h4.6c0.44,0,0.8,0.36,0.8,0.8v0c0,0.44-0.36,0.8-0.8,0.8h-4.6
			C11.24,16.77,10.88,16.41,10.88,15.97z"/>
		<path class="cls-1" d="M16.6,16.39h-0.64c-0.26,0-0.48-0.21-0.48-0.48V5.04c0-0.26,0.21-0.48,0.48-0.48h0.64c0.26,0,0.48,0.21,0.48,0.48v10.87
			C17.07,16.17,16.86,16.39,16.6,16.39z"/>
		<path class="cls-1" d="M0.8,10.07l0.41,0.49c0.17,0.2,0.47,0.23,0.67,0.07l8.17-6.73c0.2-0.17,0.23-0.47,0.07-0.67L9.71,2.73
			c-0.17-0.2-0.47-0.23-0.67-0.07L0.87,9.39C0.66,9.56,0.63,9.86,0.8,10.07z"/>
		<path class="cls-1" d="M10.26,4H9.64C9.21,4,8.87,3.65,8.87,3.23v0c0-0.43,0.35-0.77,0.77-0.77h0.62c0.43,0,0.77,0.35,0.77,0.77v0
			C11.03,3.65,10.68,4,10.26,4z"/>
		<path class="cls-1" d="M19.06,10.07l-0.41,0.49c-0.17,0.2-0.47,0.23-0.67,0.07L9.81,3.89C9.6,3.73,9.58,3.42,9.74,3.22l0.41-0.49
			c0.17-0.2,0.47-0.23,0.67-0.07l8.17,6.73C19.2,9.56,19.23,9.86,19.06,10.07z"/>
	</g>
</svg>
