<?xml version="1.0" encoding="utf-8"?>
<!-- Generator: Adobe Illustrator 25.3.0, SVG Export Plug-In . SVG Version: 6.00 Build 0)  -->
<svg id="Capa_1" data-name="Capa 1" xmlns="http://www.w3.org/2000/svg" viewBox="0 0 18.8 14.4">
	<defs>
		<style>.cls-1,.cls-2{fill:#fff;}.cls-2{stroke:#fff;stroke-linecap:round;stroke-miterlimit:10;stroke-width:0.95px;}</style>
	</defs>
	<path class="cls-1" d="M18,16.7H2A1.37,1.37,0,0,1,.6,15.3V3.7A1.37,1.37,0,0,1,2,2.3H18a1.37,1.37,0,0,1,1.4,1.4V15.3A1.37,1.37,0,0,1,18,16.7Zm-.3-1.8V4.1a.32.32,0,0,0-.3-.3H2.5a.27.27,0,0,0-.3.3V14.9a.27.27,0,0,0,.3.3H17.4A.32.32,0,0,0,17.7,14.9Z" transform="translate(-0.6 -2.3)"/>
	<line class="cls-2" x1="3.5" y1="11" x2="5.8" y2="11"/>
	<line class="cls-2" x1="7.8" y1="11" x2="12.1" y2="11"/>
</svg>