<?xml version="1.0" encoding="utf-8"?>
<!-- Generator: Adobe Illustrator 25.3.0, SVG Export Plug-In . SVG Version: 6.00 Build 0)  -->
<svg version="1.1" id="Capa_1" xmlns="http://www.w3.org/2000/svg" xmlns:xlink="http://www.w3.org/1999/xlink" x="0px" y="0px"
	 viewBox="0 0 20 20" style="enable-background:new 0 0 20 20;" xml:space="preserve">
<style type="text/css">
	.st0{fill:none;stroke:#A4A5E3;stroke-width:1.656;stroke-linecap:round;stroke-linejoin:round;stroke-miterlimit:10;}
</style>
<g>
	<path class="st0" d="M3.38,3.13c0,4.57,0,9.15,0,13.72c0,0.13,0.04,0.5,0.3,0.68c0.32,0.22,0.81,0.01,1.06-0.11
		c1.11-0.64,11.16-6.49,11.83-7.02c0.08-0.06,0.28-0.23,0.3-0.47c0.02-0.23-0.1-0.46-0.3-0.58C12.52,6.99,8.48,4.64,4.43,2.28
		C4.37,2.27,4.04,2.24,3.74,2.47C3.43,2.71,3.39,3.07,3.38,3.13z"/>
	<path class="st0" d="M4.19,3.89V3.38c0-0.02,0-0.08,0.05-0.12c0.05-0.06,0.15-0.07,0.23-0.03c0.23,0.14,0.47,0.28,0.7,0.43V2.71L3.91,2.37
		L3.38,3.98L4.19,3.89z"/>
	<path class="st0" d="M4.93,16.44c-0.13,0.05-0.27,0.1-0.4,0.14c-0.01,0.01-0.2,0.19-0.3,0.13c-0.05-0.03-0.06-0.11-0.06-0.27
		c0-0.16,0.01-0.37,0.04-0.64c-0.31,0.23-0.62,0.46-0.92,0.69l0.65,1.13l1.51-0.77C5.28,16.72,5.1,16.58,4.93,16.44z"/>
	<path class="st0" d="M14.95,9.18c0.11,0.12,0.22,0.24,0.33,0.36c0.15,0.1,0.27,0.17,0.35,0.22c0.09,0.05,0.13,0.08,0.14,0.13
		c0.01,0.07-0.12,0.13-0.23,0.2c-0.11,0.07-0.26,0.19-0.4,0.39c0.38,0.03,0.77,0.06,1.15,0.08l0.25-1.28L14.9,8.87
		C14.92,8.97,14.93,9.07,14.95,9.18z"/>
</g>
</svg>
