<?xml version="1.0" encoding="utf-8"?>
<!-- Generator: Adobe Illustrator 25.3.0, SVG Export Plug-In . SVG Version: 6.00 Build 0)  -->
<svg version="1.1" id="Capa_1" xmlns="http://www.w3.org/2000/svg" xmlns:xlink="http://www.w3.org/1999/xlink" x="0px" y="0px"
	 viewBox="0 0 20 20" style="enable-background:new 0 0 20 20;" xml:space="preserve">
<style type="text/css">
	.st0{fill:#020203;}
</style>
<path class="st0" d="M10.73,19.06H9.27c-0.41,0-0.75-0.34-0.75-0.75V1.69c0-0.41,0.34-0.75,0.75-0.75h1.46
	c0.41,0,0.75,0.34,0.75,0.75v16.62C11.48,18.73,11.14,19.06,10.73,19.06z"/>
<path class="st0" d="M0.94,10.73V9.27c0-0.41,0.34-0.75,0.75-0.75h16.62c0.41,0,0.75,0.34,0.75,0.75v1.46
	c0,0.41-0.34,0.75-0.75,0.75H1.69C1.27,11.48,0.94,11.14,0.94,10.73z"/>
</svg>
