<svg id="Capa_1" data-name="Capa 1" xmlns="http://www.w3.org/2000/svg" viewBox="0 0 19.56 16"><defs><style>.cls-1,.cls-3,.cls-4{fill:none;stroke:#022754;stroke-linecap:round;}.cls-1,.cls-3{stroke-miterlimit:10;}.cls-1{stroke-width:1.62px;}.cls-2{fill:#022754;}.cls-3,.cls-4{stroke-width:1.58px;}.cls-4{stroke-linejoin:round;}</style></defs><path class="cls-1" d="M13.92,17.2H6.08a2.47,2.47,0,0,1-2.47-2.47V8.26A2.47,2.47,0,0,1,6.08,5.79h7.85A2.47,2.47,0,0,1,16.4,8.26v6.47A2.48,2.48,0,0,1,13.92,17.2Z" transform="translate(-0.22 -2.01)"/><circle class="cls-2" cx="7.3" cy="8.04" r="1.54"/><circle class="cls-2" cx="12.37" cy="8.04" r="1.54"/><rect class="cls-2" x="5.77" y="11.31" width="2.04" height="1.46"/><rect class="cls-2" x="8.79" y="11.31" width="2.04" height="1.46"/><rect class="cls-2" x="11.87" y="11.31" width="2.04" height="1.46"/><line class="cls-3" x1="9.78" y1="3.77" x2="9.78" y2="0.79"/><path class="cls-4" d="M3.6,8.82H1.91a1,1,0,0,0-.55.25A1.07,1.07,0,0,0,1,9.81v3.42a1.06,1.06,0,0,0,.3.94,1.08,1.08,0,0,0,.75.27H3.6" transform="translate(-0.22 -2.01)"/><path class="cls-4" d="M16.4,8.78h1.69a1,1,0,0,1,.55.25,1.06,1.06,0,0,1,.33.74v3.42a1.06,1.06,0,0,1-.3.94,1.08,1.08,0,0,1-.75.27H16.4" transform="translate(-0.22 -2.01)"/></svg>