<svg id="Capa_1" data-name="Capa 1" xmlns="http://www.w3.org/2000/svg" viewBox="0 0 19.35 15.7">
	<defs>
		<style>
			.cls-1 {
				fill: #7979B0;
			}

			.cls-2 {
				fill: #7979B0;
			}
		</style>
	</defs>
	<rect class="cls-1" x="7.61" y="10.75" width="3.9" height="4.9" rx="0.69" />
	<path class="cls-1"
		d="M12.72,8.55A2.72,2.72,0,1,1,10,5.83,2.72,2.72,0,0,1,12.72,8.55ZM9.6,9.29a.2.2,0,0,0,.05.17.21.21,0,0,0,.19.07H11.2a.26.26,0,0,0,.17-.06.19.19,0,0,0,.07-.18V8.77a.24.24,0,0,0-.09-.19.25.25,0,0,0-.23-.05H10.5V7.44a.29.29,0,0,0-.05-.21.24.24,0,0,0-.19-.1H9.79a.24.24,0,0,0-.16.12.3.3,0,0,0,0,.19Z"
		transform="translate(-0.39 -2.15)" />
	<path class="cls-2"
		d="M1.79,17.45V9.65a.25.25,0,0,1,.08-.16.25.25,0,0,1,.14,0H4.19v8.3h1.5V6.85a.32.32,0,0,1,0-.18l.09-.09L6,6.45,9.69,4a.57.57,0,0,1,.36-.15.52.52,0,0,1,.38.15l0-1.78a.66.66,0,0,0-.35-.1.69.69,0,0,0-.35.1L4.85,5.49a1,1,0,0,0-.48.45,1,1,0,0,0-.08.6V8.15H1.19a.88.88,0,0,0-.6.3.91.91,0,0,0-.2.6v8.36a.62.62,0,0,0,.1.34l.1.1h.9a.34.34,0,0,0,.2-.1A.35.35,0,0,0,1.79,17.45Z"
		transform="translate(-0.39 -2.15)" />
	<path class="cls-2"
		d="M18.34,17.45V9.65a.2.2,0,0,0-.08-.16.25.25,0,0,0-.14,0H15.94v8.3h-1.5V6.85a.25.25,0,0,0,0-.18s0,0-.09-.09l-.18-.13L10.44,4a.57.57,0,0,0-.36-.15A.52.52,0,0,0,9.7,4l0-1.78a.66.66,0,0,1,.35-.1.69.69,0,0,1,.35.1l4.84,3.24a1,1,0,0,1,.48.45,1,1,0,0,1,.08.6V8.15h3.1a.88.88,0,0,1,.6.3.91.91,0,0,1,.2.6v8.36a.54.54,0,0,1-.1.34l-.1.1h-.9a.34.34,0,0,1-.2-.1A.38.38,0,0,1,18.34,17.45Z"
		transform="translate(-0.39 -2.15)" />
</svg>