<?xml version="1.0" encoding="utf-8"?>
<!-- Generator: Adobe Illustrator 25.3.0, SVG Export Plug-In . SVG Version: 6.00 Build 0)  -->
<svg version="1.1" id="Capa_1" xmlns="http://www.w3.org/2000/svg" xmlns:xlink="http://www.w3.org/1999/xlink" x="0px" y="0px"
	 viewBox="0 0 20 20" style="enable-background:new 0 0 20 20;" xml:space="preserve">
<style type="text/css">
	.st0{fill:none;stroke:#022754;stroke-width:1.556;stroke-miterlimit:10;}
</style>
<path class="st0" d="M17.57,5.65H2.82c-0.36,0-0.65-0.29-0.65-0.65V4.64c0-0.36,0.29-0.65,0.65-0.65h14.74c0.36,0,0.65,0.29,0.65,0.65v0.35
	C18.22,5.36,17.93,5.65,17.57,5.65z"/>
<path class="st0" d="M14.01,4.4C13.56,3.7,13.12,3,12.68,2.3c-0.01-0.05-0.05-0.15-0.14-0.24c-0.12-0.11-0.26-0.14-0.3-0.14
	c-1.38,0-2.77,0-4.15,0c-0.07,0.03-0.2,0.09-0.32,0.22C7.68,2.23,7.63,2.33,7.61,2.39L6.93,3.52c-0.31,0.5-0.63,1-0.94,1.5"/>
<path class="st0" d="M4.05,4.82l0.83,12.8c-0.01,0.07-0.03,0.41,0.2,0.7c0.17,0.21,0.38,0.29,0.47,0.32c1.1,0,2.2,0,3.3,0
	c0.58,0,1.16,0,1.74,0"/>
<path class="st0" d="M16.36,4.82l-0.83,12.8c0.01,0.07,0.03,0.41-0.2,0.7c-0.17,0.21-0.38,0.29-0.47,0.32c-1.1,0-2.2,0-3.3,0
	c-0.58,0-1.16,0-1.74,0"/>
</svg>
