<?xml version="1.0" encoding="utf-8"?>
<!-- Generator: Adobe Illustrator 25.3.0, SVG Export Plug-In . SVG Version: 6.00 Build 0)  -->
<svg version="1.1" id="Capa_1" xmlns="http://www.w3.org/2000/svg" xmlns:xlink="http://www.w3.org/1999/xlink" x="0px" y="0px"
	 viewBox="0 0 20 20" style="enable-background:new 0 0 20 20;" xml:space="preserve">
<style type="text/css">
	.st0{fill:#7979B0;}
</style>
<g>
	<path class="st0" d="M10.08,13.47v1.6c-0.63,0-1.26,0-1.89,0c-0.05,0.01-0.58,0.05-0.93-0.35c-0.24-0.28-0.25-0.61-0.25-0.7
		c0-0.51,0-1.02,0-1.53H2.35v4.09h7.95v1.47c-2.6,0-5.19,0-7.79,0c-0.08,0.01-0.67,0.12-1.17-0.31c-0.45-0.38-0.48-0.91-0.49-1
		c0-1.33,0-2.66,0-3.99c-0.01-0.13-0.04-0.64,0.32-1.12C1.6,11.05,2.25,11,2.35,10.99c1.53,0,3.06,0,4.6,0V9.96H4.55
		c-0.09-0.01-0.67-0.1-0.99-0.61C3.25,8.86,3.31,8.19,3.72,7.69c1.84-1.84,3.67-3.67,5.51-5.51c0.09-0.06,0.36-0.24,0.75-0.24
		c0.38,0,0.64,0.17,0.73,0.24c-0.21,0.49-0.42,0.99-0.63,1.48L5.24,8.51h3.2v4.99L10.08,13.47z"/>
	<path class="st0" d="M9.92,13.47v1.6c0.63,0,1.26,0,1.89,0c0.05,0.01,0.58,0.05,0.93-0.35c0.24-0.28,0.25-0.61,0.25-0.7
		c0-0.51,0-1.02,0-1.53h4.66v4.09H9.7v1.47c2.6,0,5.19,0,7.79,0c0.08,0.01,0.67,0.12,1.17-0.31c0.45-0.38,0.48-0.91,0.49-1
		c0-1.33,0-2.66,0-3.99c0.01-0.13,0.04-0.64-0.32-1.12c-0.43-0.57-1.08-0.62-1.18-0.63c-1.53,0-3.06,0-4.6,0V9.96h2.39
		c0.09-0.01,0.67-0.1,0.99-0.61c0.31-0.49,0.25-1.16-0.16-1.66c-1.84-1.84-3.67-3.67-5.51-5.51c-0.09-0.06-0.36-0.24-0.75-0.24
		c-0.38,0-0.64,0.17-0.73,0.24C9.5,2.68,9.71,3.18,9.92,3.67l4.84,4.84h-3.2v4.99L9.92,13.47z"/>
	<circle class="st0" cx="15.48" cy="14.51" r="0.72"/>
</g>
</svg>
