<?xml version="1.0" encoding="utf-8"?>
<!-- Generator: Adobe Illustrator 25.3.0, SVG Export Plug-In . SVG Version: 6.00 Build 0)  -->
<svg version="1.1" id="Capa_1" xmlns="http://www.w3.org/2000/svg" xmlns:xlink="http://www.w3.org/1999/xlink" x="0px" y="0px"
	 viewBox="0 0 20 20" style="enable-background:new 0 0 20 20;" xml:space="preserve">
<style type="text/css">
	.st0{fill:none;stroke:#022754;stroke-width:1.2629;stroke-miterlimit:10;}
	.st1{fill:none;stroke:#022754;stroke-width:1.3813;stroke-linecap:round;stroke-linejoin:round;stroke-miterlimit:10;}
	.st2{fill:#022754;}
</style>
<g>
	<g>
		<circle class="st0" cx="3.39" cy="11.36" r="1.64"/>
		<path class="st1" d="M1.24,17.25c-0.01-0.15-0.01-0.39,0.07-0.66c0.11-0.37,0.32-0.61,0.44-0.73c0.17-0.13,0.45-0.31,0.82-0.42
			c0.3-0.09,0.56-0.11,0.76-0.11c0.22,0,0.63,0.02,1.07,0.24c0.25,0.13,0.44,0.28,0.56,0.4c0.15,0.15,0.35,0.33,0.46,0.64
			c0.09,0.25,0.1,0.47,0.09,0.6"/>
	</g>
	<g>
		<circle class="st0" cx="10.01" cy="11.36" r="1.64"/>
		<path class="st1" d="M7.86,17.25c-0.01-0.15-0.01-0.39,0.07-0.66c0.11-0.37,0.32-0.61,0.44-0.73c0.17-0.13,0.45-0.31,0.82-0.42
			c0.3-0.09,0.56-0.11,0.76-0.11c0.22,0,0.63,0.02,1.07,0.24c0.25,0.13,0.44,0.28,0.56,0.4c0.15,0.15,0.35,0.33,0.46,0.64
			c0.09,0.25,0.1,0.47,0.09,0.6"/>
	</g>
	<g>
		<circle class="st0" cx="16.64" cy="11.36" r="1.64"/>
		<path class="st1" d="M14.49,17.25c-0.01-0.15-0.01-0.39,0.07-0.66c0.11-0.37,0.32-0.61,0.44-0.73c0.17-0.13,0.45-0.31,0.82-0.42
			c0.3-0.09,0.56-0.11,0.76-0.11c0.22,0,0.63,0.02,1.07,0.24c0.25,0.13,0.44,0.28,0.56,0.4c0.15,0.15,0.35,0.33,0.46,0.64
			c0.09,0.25,0.1,0.47,0.09,0.6"/>
	</g>
	<path class="st2" d="M10.02,4.19V2.75H2.66C2.55,2.76,2.13,2.82,1.8,3.19C1.44,3.58,1.43,4.03,1.43,4.14c0,1.5,0,3.01,0,4.51
		c0.09-0.09,0.22-0.2,0.4-0.3c0.23-0.13,0.43-0.18,0.54-0.21c0.2-0.04,0.38-0.05,0.52-0.04c0-1.3,0-2.6,0-3.9L10.02,4.19z"/>
	<path class="st2" d="M10,4.19V2.75h7.36c0.11,0.01,0.53,0.08,0.86,0.44c0.36,0.39,0.37,0.84,0.37,0.95c0,1.5,0,3.01,0,4.51
		c-0.09-0.09-0.22-0.2-0.4-0.3c-0.23-0.13-0.43-0.18-0.54-0.21c-0.2-0.04-0.38-0.05-0.52-0.04c0-1.3,0-2.6,0-3.9L10,4.19z"/>
</g>
</svg>
