<?xml version="1.0" encoding="utf-8"?>
<!-- Generator: Adobe Illustrator 25.3.0, SVG Export Plug-In . SVG Version: 6.00 Build 0)  -->
<svg version="1.1" id="Capa_1" xmlns="http://www.w3.org/2000/svg" xmlns:xlink="http://www.w3.org/1999/xlink" x="0px" y="0px"
	 viewBox="0 0 20 20" style="enable-background:new 0 0 20 20;" xml:space="preserve">
<style type="text/css">
	.st0{fill:none;stroke:#7979B0;stroke-width:1.4015;stroke-miterlimit:10;}
	.st1{fill:#7979B0;}
</style>
<circle class="st0" cx="9.97" cy="6.05" r="4.01"/>
<path class="st1" d="M12.97,11.33c0.09-0.07,0.21-0.07,0.31-0.06c0.34,0.03,0.45,0.06,0.45,0.06c0.45,0.13,0.78,0.27,0.78,0.27
	c0.23,0.1,0.5,0.24,0.78,0.42c0.38,0.25,0.68,0.51,0.89,0.74c0.2,0.22,0.46,0.55,0.66,1c0.32,0.71,0.35,1.35,0.34,1.71
	c0,0.31,0,0.61,0,0.92c0,0.09,0.01,0.83-0.57,1.27c-0.28,0.21-0.57,0.26-0.72,0.28H9.98v-6.19h1.52c-0.5,0.85-0.86,1.46-0.97,1.63
	c-0.03,0.04-0.08,0.12-0.09,0.23c0,0.07,0.02,0.11,0.06,0.25c0.02,0.1,0.03,0.15,0.04,0.21c0.14,0.67,0.29,1.34,0.43,2
	c0.05,0.16,0.1,0.18,0.12,0.18c0.13,0.02,0.26-0.38,0.26-0.4c0.35-1.08,1.16-3.38,1.51-4.35c0.02-0.05,0.03-0.09,0.04-0.11
	C12.92,11.39,12.94,11.36,12.97,11.33z M12.69,16.43h3v-1.14c-0.01-0.3-0.07-0.54-0.12-0.69c-0.09-0.25-0.19-0.42-0.25-0.51
	c-0.1-0.16-0.2-0.28-0.28-0.37c-0.1-0.11-0.24-0.24-0.41-0.36c-0.24-0.17-0.47-0.28-0.65-0.35C13.55,14.14,13.12,15.29,12.69,16.43z
	"/>
<path class="st1" d="M7.07,11.41c0.01,0.02,0.02,0.06,0.04,0.11c0.35,0.97,1.16,3.27,1.51,4.35c0.01,0.02,0.14,0.42,0.26,0.4
	c0.02,0,0.07-0.02,0.12-0.18c0.14-0.67,0.29-1.34,0.43-2c0.01-0.06,0.02-0.11,0.04-0.21c0.04-0.14,0.06-0.18,0.06-0.25
	c0-0.11-0.06-0.19-0.09-0.23c-0.11-0.17-0.47-0.78-0.97-1.63H10v6.19H4.09c-0.16-0.02-0.45-0.07-0.72-0.28
	c-0.58-0.44-0.57-1.18-0.57-1.27c0-0.31,0-0.61,0-0.92c-0.01-0.36,0.02-1.01,0.34-1.71c0.2-0.45,0.46-0.78,0.66-1
	c0.22-0.23,0.51-0.49,0.89-0.74c0.28-0.18,0.54-0.32,0.78-0.42c0,0,0.32-0.15,0.78-0.27c0,0,0.11-0.03,0.45-0.06
	c0.1-0.01,0.22-0.02,0.31,0.06C7.04,11.36,7.06,11.39,7.07,11.41z M6,13c-0.18,0.07-0.41,0.18-0.65,0.35
	c-0.17,0.12-0.3,0.25-0.41,0.36c-0.08,0.09-0.18,0.22-0.28,0.37C4.6,14.18,4.5,14.35,4.41,14.6C4.36,14.76,4.29,15,4.29,15.29v1.14
	h3C6.86,15.29,6.43,14.14,6,13z"/>
</svg>
