<?xml version="1.0" encoding="utf-8"?>
<!-- Generator: Adobe Illustrator 25.3.0, SVG Export Plug-In . SVG Version: 6.00 Build 0)  -->
<svg version="1.1" id="Capa_1" xmlns="http://www.w3.org/2000/svg" xmlns:xlink="http://www.w3.org/1999/xlink" x="0px" y="0px"
	 viewBox="0 0 20 20" style="enable-background:new 0 0 20 20;" xml:space="preserve">
<style type="text/css">
	.st0{fill:none;stroke:#ffffff;stroke-width:1.6149;stroke-linejoin:round;stroke-miterlimit:10;}
	.st1{fill:none;stroke:#ffffff;stroke-width:0.7638;stroke-linecap:round;stroke-linejoin:round;stroke-miterlimit:10;}
</style>
<g>
	<circle class="st0" cx="10.01" cy="4.94" r="3.72"/>
	<path class="st0" d="M10.05,11.52c-0.37-0.02-0.81-0.07-1.31-0.19c-0.72-0.18-1.29-0.46-1.69-0.7c-0.37-0.1-1.09-0.24-1.94-0.02
		c-0.34,0.09-1,0.27-1.56,0.86c-0.23,0.24-0.37,0.48-0.46,0.65c-0.19,0.39-0.3,0.87-0.3,1.59c0,0.97,0,1.94,0,2.91
		c0,0.58,0.2,0.9,0.48,1.23c0.58,0.68,1.99,0.77,2,0.77c0,0,0,0,0,0c0,0,0,0,0,0c0,0,1.9,0,4.81,0"/>
	<path class="st0" d="M10.03,11.52c0.37-0.02,0.81-0.07,1.31-0.19c0.72-0.18,1.29-0.46,1.69-0.7c0.37-0.1,1.09-0.24,1.94-0.02
		c0.34,0.09,1,0.27,1.56,0.86c0.23,0.24,0.37,0.48,0.46,0.65c0.19,0.39,0.3,0.87,0.3,1.59c0,0.97,0,1.94,0,2.91
		c0,0.58-0.2,0.9-0.48,1.23c-0.58,0.68-1.99,0.77-2,0.77c0,0,0,0,0,0c0,0,0,0,0,0c0,0-1.9,0-4.81,0"/>
	<line class="st1" x1="9.66" y1="11.94" x2="10.36" y2="11.94"/>
</g>
</svg>
