<svg id="Capa_1" data-name="Capa 1" xmlns="http://www.w3.org/2000/svg" viewBox="0 0 1218 125.32">
    <defs>
        <style>
            .cls-1 {
                fill: #ee7727;
            }

            .cls-2 {
                fill: #1e3867;
            }
        </style>
    </defs>
    <path class="cls-1"
        d="M34.81,123.93c-4.18,0-6-1.83-6-6V9.64c0-4.18,1.83-6,6-6H90.46c25.06,0,32.92,11.37,32.92,27.91v7.69c0,9.36-2.33,16-9.36,19.05,12.2,1.34,20.22,10.2,20.22,24.23v35.42c0,4.18-1.84,6-6,6h-25.9c-4.17,0-6-1.83-6-6V92.35c0-5-1.67-7.18-6.35-7.18H66.56v32.75c0,4.18-1.84,6-6,6ZM66.56,55.09H79.09c5.85,0,7.35-3.34,7.35-7.85V41.55c0-4.51-1.5-7.84-7.35-7.84H66.56Z"
        transform="translate(-28.8 -1.12)" />
    <path class="cls-1"
        d="M203.07,126.44c-41.77,0-52-13.71-52-34.09v-57c0-20.39,10.2-34.25,52-34.25S254.88,15,254.88,35.37v57C254.88,112.73,244.85,126.44,203.07,126.44Zm0-32.25c12.21,0,14.05-3.34,14.05-7.85V41.4c0-4.34-1.84-7.69-14.05-7.69-12,0-14,3.33-14,7.69V86.34C189,90.84,191.05,94.19,203.07,94.19Z"
        transform="translate(-28.8 -1.12)" />
    <path class="cls-1"
        d="M282.11,123.93c-4.17,0-6-1.83-6-6V9.64c0-4.18,1.84-6,6-6h53.31c21.89,0,32.09,8,32.09,25.57v8c0,9.36-3.19,15.21-9.86,18,14.37,1.34,21.06,9.53,21.06,25.89V96.53c0,18.71-10.2,27.4-32.42,27.4Zm31.58-73.86h14.2c4.35,0,6.35-2.18,6.35-6.69V38.7c0-4.51-2-6.69-6.35-6.69h-14.2Zm0,45.45h21.73c4.34,0,6.35-2.17,6.35-6.69V82.31c0-4.51-2-6.52-6.35-6.52H313.69Z"
        transform="translate(-28.8 -1.12)" />
    <path class="cls-1"
        d="M447.38,126.44c-41.77,0-52-13.71-52-34.09v-57c0-20.39,10.2-34.25,52-34.25S499.19,15,499.19,35.37v57C499.19,112.73,489.16,126.44,447.38,126.44Zm0-32.25c12.21,0,14-3.34,14-7.85V41.4c0-4.34-1.83-7.69-14-7.69-12,0-14,3.33-14,7.69V86.34C433.34,90.84,435.35,94.19,447.38,94.19Z"
        transform="translate(-28.8 -1.12)" />
    <path class="cls-1"
        d="M550.31,123.93h-25.4c-4.17,0-6-1.83-6-6V100.05c0-10.37,1.34-13.71,6.35-20.55l13.53-18.22L525.25,43.07c-5.18-6.85-6.35-10.2-6.35-20.55V9.65c0-4.17,1.84-6,6-6h25.74c4.17,0,6,1.84,6,6V21.18c0,2.33,0,4.85,1.5,7l7.35,10.52c1.18,1.84,2.18,2.84,4,2.84h2c1.84,0,2.67-1,4-2.84l7.53-10.52c1.5-2.18,1.5-4.68,1.5-7V9.65c0-4.17,1.84-6,6-6H616c4.17,0,6,1.84,6,6V22.52c0,10.36-1.34,13.7-6.35,20.55L602.11,61.45l13.54,18c5.18,6.84,6.35,10.19,6.35,20.55v17.87c0,4.18-1.84,6-6,6h-25.4c-4.17,0-6-1.83-6-6V101.38c0-2.34.17-4.68-1.5-7l-7.36-10.52c-1.34-2-2.17-2.84-4-2.84h-2.34c-1.83,0-2.67.83-4,2.84l-7.53,10.52c-1.66,2.34-1.5,4.68-1.5,7v16.54C556.32,122.1,554.48,123.93,550.31,123.93Z"
        transform="translate(-28.8 -1.12)" />
    <path class="cls-2"
        d="M649.56,123.93c-4.17,0-6-1.83-6-6V9.64c0-4.18,1.84-6,6-6h26.9c3.51,0,5.69,1.35,7.68,5l15,27.24c1.17,2,1.66,2.85,3,2.85h1.5c1.34,0,1.84-.84,3-2.85L721.58,8.64c2-3.67,4.17-5,7.69-5h27.07c4.17,0,6,1.84,6,6V117.92c0,4.18-1.84,6-6,6H730.6c-4.34,0-6-1.83-6-6V59.11l-9.86,18.21c-2,3.85-4.51,5.35-8.85,5.35h-6.69c-4.34,0-6.85-1.5-8.85-5.35l-9.86-18.21v58.81c0,4.18-1.84,6-6,6Z"
        transform="translate(-28.8 -1.12)" />
    <path class="cls-2"
        d="M813.5,123.93H788.94c-4.18,0-6-1.83-6-6V73.81c0-6.69,2-15,6.52-26.74L804,9.14c1.35-3.85,4-5.52,8.53-5.52h44.94c4.35,0,7,1.67,8.36,5.52l14.54,37.93c4.51,11.7,6.52,20.05,6.52,26.74v44.11c0,4.18-1.84,6-6,6H855.63c-4.51,0-6.52-1.83-6.52-6V94.53H819.54v23.39C819.51,122.1,817.67,123.93,813.5,123.93Zm7.68-59.82h26.23l-7.84-25.4c-.84-2-1.84-2.84-3.17-2.84h-4.18c-1.33,0-2.33.83-3.18,2.84Z"
        transform="translate(-28.8 -1.12)" />
    <path class="cls-2"
        d="M913.42,123.93c-4.18,0-6-1.83-6-6V9.64c0-4.18,1.83-6,6-6h25.89c4.18,0,6,1.84,6,6V48.07H952L969.24,9.14c1.67-4,4-5.52,8.35-5.52h25.74c3.85,0,5.18,2,3.68,5.52L990,48.07c12.53.67,20.55,9.37,20.55,22.73v47.12c0,4.18-1.84,6-6,6H978.76c-4.18,0-6-1.83-6-6V85.34c0-3.68-1.83-5.69-5.34-5.69H945.34v38.27c0,4.18-1.84,6-6,6Z"
        transform="translate(-28.8 -1.12)" />
    <path class="cls-2"
        d="M1038.08,123.93c-4.17,0-6-1.83-6-6V9.64c0-4.18,1.84-6,6-6h77.54c4.18,0,6,1.84,6,6V29.18c0,4.17-1.84,6-6,6h-46.11V48.06h32.58c4.17,0,6,1.84,6,6V72c0,4.17-1.84,6-6,6h-32.58V92.33h46.11c4.18,0,6,1.84,6,6v19.54c0,4.18-1.84,6-6,6h-77.54Z"
        transform="translate(-28.8 -1.12)" />
    <path class="cls-2"
        d="M1147.36,123.93c-4.17,0-6-1.83-6-6V9.64c0-4.18,1.84-6,6-6H1203c25.06,0,32.92,11.37,32.92,27.91v7.69c0,9.36-2.33,16-9.36,19.05,12.21,1.34,20.23,10.2,20.23,24.23v35.42c0,4.18-1.84,6-6,6h-25.89c-4.17,0-6-1.83-6-6V92.35c0-5-1.67-7.18-6.35-7.18h-23.39v32.75c0,4.18-1.84,6-6,6Zm31.75-68.84h12.53c5.86,0,7.35-3.34,7.35-7.85V41.55c0-4.51-1.49-7.84-7.35-7.84h-12.53Z"
        transform="translate(-28.8 -1.12)" />
</svg>