<svg id="Capa_1" data-name="Capa 1" xmlns="http://www.w3.org/2000/svg" xmlns:xlink="http://www.w3.org/1999/xlink"
    viewBox="0 0 1260 191.47">
    <defs>
        <style>
            .cls-1 {
                fill: url(#Degradado_sin_nombre_5);
            }

            .cls-2 {
                fill: url(#Degradado_sin_nombre_5-2);
            }

            .cls-3 {
                fill: url(#Degradado_sin_nombre_5-3);
            }

            .cls-4 {
                fill: url(#Degradado_sin_nombre_5-4);
            }

            .cls-5 {
                fill: url(#Degradado_sin_nombre_5-5);
            }

            .cls-6 {
                fill: url(#Degradado_sin_nombre_10);
            }

            .cls-7 {
                fill: url(#Degradado_sin_nombre_10-2);
            }

            .cls-8 {
                fill: url(#Degradado_sin_nombre_10-3);
            }

            .cls-9 {
                fill: url(#Degradado_sin_nombre_10-4);
            }

            .cls-10 {
                fill: url(#Degradado_sin_nombre_10-5);
            }

            .cls-11 {
                fill: #FFFFFF;
            }

            .cls-12 {
                fill: #FFFFFF;
            }

            .cls-13 {
                fill: none;
            }
        </style>
        <linearGradient id="Degradado_sin_nombre_5" x1="62.34" y1="156.77" x2="62.34" y2="102.82"
            gradientTransform="matrix(1, 0, 0, -1, 0, 198.44)" gradientUnits="userSpaceOnUse">
            <stop offset="0" stop-color="#FFFFFF" />
            <stop offset="1" stop-color="#FFFFFF" />
        </linearGradient>
        <linearGradient id="Degradado_sin_nombre_5-2" x1="187.99" y1="156.77" x2="187.99" y2="102.82"
            xlink:href="#Degradado_sin_nombre_5" />
        <linearGradient id="Degradado_sin_nombre_5-3" x1="316.7" y1="156.77" x2="316.7" y2="102.82"
            xlink:href="#Degradado_sin_nombre_5" />
        <linearGradient id="Degradado_sin_nombre_5-4" x1="440.73" y1="156.77" x2="440.73" y2="102.82"
            xlink:href="#Degradado_sin_nombre_5" />
        <linearGradient id="Degradado_sin_nombre_5-5" x1="568.13" y1="156.77" x2="568.13" y2="102.82"
            xlink:href="#Degradado_sin_nombre_5" />
        <linearGradient id="Degradado_sin_nombre_10" x1="705.22" y1="157.07" x2="705.22" y2="103.04"
            gradientTransform="matrix(1, 0, 0, -1, 0, 198.44)" gradientUnits="userSpaceOnUse">
            <stop offset="0" stop-color="#FFFFFF" />
            <stop offset="1" stop-color="#FFFFFF" />
        </linearGradient>
        <linearGradient id="Degradado_sin_nombre_10-2" x1="841.69" y1="157.07" x2="841.69" y2="103.04"
            xlink:href="#Degradado_sin_nombre_10" />
        <linearGradient id="Degradado_sin_nombre_10-3" x1="970.03" y1="157.07" x2="970.03" y2="103.04"
            xlink:href="#Degradado_sin_nombre_10" />
        <linearGradient id="Degradado_sin_nombre_10-4" x1="1091.99" y1="157.07" x2="1091.99" y2="103.04"
            xlink:href="#Degradado_sin_nombre_10" />
        <linearGradient id="Degradado_sin_nombre_10-5" x1="1213.25" y1="157.07" x2="1213.25" y2="103.04"
            xlink:href="#Degradado_sin_nombre_10" />
    </defs>
    <path class="cls-1"
        d="M14,130.53c-4.31,0-6.21-1.91-6.21-6.22v-112C7.8,8,9.7,6.07,14,6.07H71.58c25.93,0,34.06,11.76,34.06,28.86v8c0,9.69-2.41,16.59-9.68,19.71,12.62,1.39,20.92,10.55,20.92,25.06v36.65c0,4.31-1.91,6.22-6.22,6.22H83.87c-4.32,0-6.22-1.91-6.22-6.22V97.86c0-5.18-1.72-7.44-6.57-7.44H46.88v33.89c0,4.31-1.9,6.22-6.21,6.22ZM46.86,59.31h13c6.06,0,7.61-3.46,7.61-8.12V45.31c0-4.67-1.55-8.12-7.61-8.12h-13Z"
        transform="translate(-7.8 -3.48)" />
    <path class="cls-2"
        d="M188.08,133.12c-43.21,0-53.76-14.18-53.76-35.26V38.91c0-21.09,10.55-35.43,53.76-35.43s53.59,14.35,53.59,35.43v59C241.67,118.94,231.3,133.12,188.08,133.12Zm0-33.36c12.63,0,14.53-3.45,14.53-8.12V45.14c0-4.49-1.9-8-14.53-8-12.45,0-14.52,3.45-14.52,8v46.5C173.57,96.31,175.65,99.76,188.08,99.76Z"
        transform="translate(-7.8 -3.48)" />
    <path class="cls-3"
        d="M269.85,130.53c-4.32,0-6.22-1.91-6.22-6.22v-112c0-4.32,1.9-6.22,6.22-6.22H325c22.65,0,33.2,8.29,33.2,26.45v8.29c0,9.69-3.28,15.73-10.2,18.67,14.86,1.39,21.78,9.86,21.78,26.79v15.9c0,19.36-10.55,28.36-33.53,28.36Zm32.67-76.4h14.69c4.49,0,6.57-2.26,6.57-6.92V42.37c0-4.67-2.08-6.92-6.57-6.92H302.52Zm0,47H325c4.49,0,6.57-2.25,6.57-6.91V87.47c0-4.67-2.08-6.74-6.57-6.74H302.52Z"
        transform="translate(-7.8 -3.48)" />
    <path class="cls-4"
        d="M440.82,133.12c-43.22,0-53.77-14.18-53.77-35.26V38.91c0-21.09,10.55-35.43,53.77-35.43s53.59,14.35,53.59,35.43v59C494.41,118.94,484,133.12,440.82,133.12Zm0-33.36c12.62,0,14.52-3.45,14.52-8.12V45.14c0-4.49-1.9-8-14.52-8-12.45,0-14.53,3.45-14.53,8v46.5C426.29,96.31,428.37,99.76,440.82,99.76Z"
        transform="translate(-7.8 -3.48)" />
    <path class="cls-5"
        d="M547.29,130.53H521c-4.32,0-6.22-1.91-6.22-6.22V105.82c0-10.73,1.39-14.18,6.57-21.26l14-18.85-14-18.84c-5.36-7.08-6.57-10.55-6.57-21.26V12.3c0-4.32,1.9-6.22,6.22-6.22h26.62c4.32,0,6.22,1.9,6.22,6.22V24.22c0,2.42,0,5,1.55,7.26L563,42.37c1.22,1.9,2.25,2.94,4.16,2.94h2.07c1.91,0,2.77-1,4.16-2.94l7.78-10.89c1.55-2.25,1.55-4.84,1.55-7.26V12.3c0-4.32,1.9-6.22,6.22-6.22h26.28c4.31,0,6.21,1.9,6.21,6.22V25.61c0,10.73-1.39,14.18-6.56,21.26l-14,19,14,18.67c5.35,7.08,6.56,10.55,6.56,21.26v18.49c0,4.31-1.9,6.22-6.21,6.22H589c-4.32,0-6.22-1.91-6.22-6.22V107.19c0-2.41.18-4.84-1.55-7.26l-7.61-10.88c-1.39-2.08-2.25-2.94-4.15-2.94H567c-1.9,0-2.76.86-4.15,2.94l-7.78,10.88c-1.73,2.42-1.55,4.85-1.55,7.26v17.12C553.51,128.62,551.62,130.53,547.29,130.53Z"
        transform="translate(-7.8 -3.48)" />
    <path class="cls-6"
        d="M650,130.53c-4.31,0-6.22-1.91-6.22-6.22v-112c0-4.32,1.91-6.22,6.22-6.22h27.83c3.63,0,5.88,1.39,7.94,5.19l15.56,28.18c1.21,2.08,1.72,2.94,3.11,2.94H706c1.39,0,1.9-.86,3.11-2.94l15.39-28.18c2.08-3.8,4.32-5.19,8-5.19h28c4.32,0,6.22,1.9,6.22,6.22v112c0,4.31-1.9,6.22-6.22,6.22H733.83c-4.5,0-6.22-1.91-6.22-6.22V63.46L717.41,82.3c-2.08,4-4.67,5.54-9.16,5.54h-6.92c-4.49,0-7.08-1.56-9.16-5.54L682,63.46v60.85c0,4.31-1.9,6.22-6.22,6.22Z"
        transform="translate(-7.8 -3.48)" />
    <path class="cls-7"
        d="M819.56,130.53H794.15c-4.32,0-6.22-1.91-6.22-6.22V78.68c0-6.92,2.08-15.56,6.74-27.67l15-39.24c1.39-4,4.16-5.7,8.82-5.7H865c4.49,0,7.26,1.72,8.65,5.7l15,39.24c4.67,12.1,6.75,20.75,6.75,27.67v45.63c0,4.31-1.9,6.22-6.22,6.22h-26.1c-4.67,0-6.74-1.91-6.74-6.22v-24.2H825.8v24.2C825.78,128.62,823.88,130.53,819.56,130.53Zm7.94-61.89h27.14l-8.12-26.27c-.86-2.08-1.9-2.95-3.27-2.95h-4.32c-1.38,0-2.42.87-3.28,2.95Z"
        transform="translate(-7.8 -3.48)" />
    <path class="cls-8"
        d="M922.92,130.53c-4.31,0-6.22-1.91-6.22-6.22v-112c0-4.32,1.91-6.22,6.22-6.22h26.79c4.32,0,6.22,1.9,6.22,6.22V52.05h6.92l17.8-40.28c1.73-4.15,4.16-5.7,8.65-5.7h26.62c4,0,5.36,2.08,3.81,5.7L1002.1,52.05c13,.69,21.26,9.68,21.26,23.51v48.75c0,4.31-1.9,6.22-6.22,6.22H990.51c-4.31,0-6.22-1.91-6.22-6.22V90.6c0-3.8-1.9-5.88-5.53-5.88H955.94v39.59c0,4.31-1.9,6.22-6.22,6.22Z"
        transform="translate(-7.8 -3.48)" />
    <path class="cls-9"
        d="M1051.89,130.53c-4.32,0-6.22-1.91-6.22-6.22v-112c0-4.32,1.9-6.22,6.22-6.22h80.21c4.32,0,6.22,1.9,6.22,6.22V32.51c0,4.31-1.9,6.21-6.22,6.21h-47.71V52h33.71c4.32,0,6.22,1.9,6.22,6.21v18.5c0,4.31-1.9,6.22-6.22,6.22h-33.71V97.83h47.71c4.32,0,6.22,1.9,6.22,6.22v20.22c0,4.31-1.9,6.22-6.22,6.22h-80.21Z"
        transform="translate(-7.8 -3.48)" />
    <path class="cls-10"
        d="M1164.93,130.53c-4.31,0-6.22-1.91-6.22-6.22v-112c0-4.32,1.91-6.22,6.22-6.22h57.57c25.93,0,34.06,11.76,34.06,28.86v8c0,9.69-2.42,16.59-9.69,19.71,12.63,1.39,20.93,10.55,20.93,25.06v36.65c0,4.31-1.91,6.22-6.22,6.22h-26.79c-4.32,0-6.22-1.91-6.22-6.22V97.86c0-5.18-1.73-7.44-6.57-7.44h-24.2v33.89c0,4.31-1.9,6.22-6.21,6.22Zm32.85-71.22h13c6.06,0,7.61-3.46,7.61-8.12V45.31c0-4.67-1.55-8.12-7.61-8.12h-13Z"
        transform="translate(-7.8 -3.48)" />
    <path class="cls-11"
        d="M8.17,186.34V159H18.9a13.82,13.82,0,0,1,5.3,1,11.09,11.09,0,0,1,4,2.82,12.61,12.61,0,0,1,2.58,4.34,16.62,16.62,0,0,1,.9,5.56,16.15,16.15,0,0,1-.9,5.57,13,13,0,0,1-2.56,4.34,11,11,0,0,1-4.05,2.8,14.1,14.1,0,0,1-5.31,1H8.17Zm4.24-3.64-.12-.43h6.42a9.75,9.75,0,0,0,3.69-.66,7.54,7.54,0,0,0,2.74-1.9,8.4,8.4,0,0,0,1.7-3,13,13,0,0,0,.59-4,12.81,12.81,0,0,0-.59-4,8.21,8.21,0,0,0-1.73-3,7.56,7.56,0,0,0-2.73-1.92,9.64,9.64,0,0,0-3.69-.66H12.17l.22-.35v20Z"
        transform="translate(-7.8 -3.48)" />
    <path class="cls-11"
        d="M46,186.73a11.28,11.28,0,0,1-5.61-1.35,9.79,9.79,0,0,1-3.83-3.69,10.36,10.36,0,0,1-1.39-5.4,11.83,11.83,0,0,1,.78-4.42,10.74,10.74,0,0,1,2.17-3.47,9.56,9.56,0,0,1,3.32-2.26,11,11,0,0,1,4.21-.8,9,9,0,0,1,3.71.77,9.19,9.19,0,0,1,5,5.23,10.51,10.51,0,0,1,.64,4l0,1.72H38.14l-.9-3.21h14.2l-.59.67v-1a4.52,4.52,0,0,0-.86-2.31,5.39,5.39,0,0,0-1.88-1.6,5.3,5.3,0,0,0-2.47-.59,7.46,7.46,0,0,0-3.56.79,5.08,5.08,0,0,0-2.18,2.35,8.85,8.85,0,0,0-.74,3.82,7.31,7.31,0,0,0,.9,3.73,6,6,0,0,0,2.54,2.44,8,8,0,0,0,3.79.87,7.78,7.78,0,0,0,2.83-.52,9.67,9.67,0,0,0,2.83-1.83l2,2.86a9.2,9.2,0,0,1-2.3,1.64,13.85,13.85,0,0,1-2.85,1.12A10.53,10.53,0,0,1,46,186.73Z"
        transform="translate(-7.8 -3.48)" />
    <path class="cls-11"
        d="M66.19,186.73a11.4,11.4,0,0,1-4.66-.9,8.57,8.57,0,0,1-3.44-2.66l2.74-2.35a6.88,6.88,0,0,0,2.56,2,7.73,7.73,0,0,0,3.15.61,4.61,4.61,0,0,0,1.31-.17,3.46,3.46,0,0,0,1.05-.53,2.55,2.55,0,0,0,.69-.84,2.38,2.38,0,0,0,.23-1.08,2,2,0,0,0-.75-1.64,6.17,6.17,0,0,0-1.22-.61c-.57-.21-1.29-.44-2.18-.69A18.14,18.14,0,0,1,62,176.51a6.69,6.69,0,0,1-2.22-1.69,5.1,5.1,0,0,1-.87-1.62,6.19,6.19,0,0,1-.27-1.94,5,5,0,0,1,.57-2.36A5.93,5.93,0,0,1,60.72,167a7,7,0,0,1,2.35-1.23,9.63,9.63,0,0,1,2.87-.43,10.81,10.81,0,0,1,2.88.39,9.7,9.7,0,0,1,2.64,1.13,8.3,8.3,0,0,1,2,1.75l-2.31,2.55a9.52,9.52,0,0,0-1.62-1.3,7.75,7.75,0,0,0-1.78-.88,4.68,4.68,0,0,0-1.64-.31,6.19,6.19,0,0,0-1.49.16,3.47,3.47,0,0,0-1.12.47,2.3,2.3,0,0,0-.68.78,2.17,2.17,0,0,0-.23,1.06,2.39,2.39,0,0,0,.25,1,2.29,2.29,0,0,0,.61.77,5.79,5.79,0,0,0,1.29.66,15.8,15.8,0,0,0,2.19.67,17.79,17.79,0,0,1,3.22,1.11,6.64,6.64,0,0,1,2,1.39,4,4,0,0,1,1.1,1.73,7.47,7.47,0,0,1,.31,2.19,5.27,5.27,0,0,1-1,3.14A6.74,6.74,0,0,1,69.92,186,8.59,8.59,0,0,1,66.19,186.73Z"
        transform="translate(-7.8 -3.48)" />
    <path class="cls-11"
        d="M86.8,186.73a9.48,9.48,0,0,1-5.1-1.4,10,10,0,0,1-3.56-3.83,11.93,11.93,0,0,1,0-10.87,10,10,0,0,1,3.56-3.83,9.32,9.32,0,0,1,5.1-1.41,11.15,11.15,0,0,1,5,1.12,8.14,8.14,0,0,1,3.42,3L93,172.29a7.59,7.59,0,0,0-1.61-1.65,8.2,8.2,0,0,0-2.07-1.17,5.69,5.69,0,0,0-2.12-.43,6.3,6.3,0,0,0-3.35.91,6.62,6.62,0,0,0-2.33,2.53,7.37,7.37,0,0,0-.86,3.6,7,7,0,0,0,.9,3.57,6.89,6.89,0,0,0,2.39,2.52,6.08,6.08,0,0,0,3.29,1,6.22,6.22,0,0,0,2-.35,7,7,0,0,0,1.94-1.06A9.86,9.86,0,0,0,93,180l2.22,2.74a9.26,9.26,0,0,1-3.57,2.9A11.44,11.44,0,0,1,86.8,186.73Z"
        transform="translate(-7.8 -3.48)" />
    <path class="cls-11"
        d="M106.21,186.73a7,7,0,0,1-3.82-1,6.68,6.68,0,0,1-2.51-2.86,10,10,0,0,1-.88-4.38V165.8h4v11.57a7.84,7.84,0,0,0,.56,3.1,4.3,4.3,0,0,0,1.65,2,4.54,4.54,0,0,0,2.6.71,5.58,5.58,0,0,0,2.08-.38,5.06,5.06,0,0,0,1.62-1,4.8,4.8,0,0,0,1.08-1.61,5.4,5.4,0,0,0,.39-2V165.77h4V186.3h-4V182l.7-.47a6.74,6.74,0,0,1-1.58,2.61,8.4,8.4,0,0,1-5.93,2.59Z"
        transform="translate(-7.8 -3.48)" />
    <path class="cls-11"
        d="M133.47,186.73a8.69,8.69,0,0,1-2.65-.43,9.07,9.07,0,0,1-2.38-1.16,7.82,7.82,0,0,1-1.8-1.6,5.12,5.12,0,0,1-1-1.78l1-.56v5h-4V157.38h4v13.1l-.62-.35a4.12,4.12,0,0,1,.86-1.74,7,7,0,0,1,1.7-1.53,9.76,9.76,0,0,1,2.25-1.09,7.74,7.74,0,0,1,2.47-.4,9,9,0,0,1,4.92,1.36,9.66,9.66,0,0,1,3.4,3.78,11.66,11.66,0,0,1,1.26,5.49,12,12,0,0,1-1.23,5.51,9.68,9.68,0,0,1-3.39,3.82A8.76,8.76,0,0,1,133.47,186.73Zm-.66-3.68a5.79,5.79,0,0,0,3.21-.92,6.24,6.24,0,0,0,2.22-2.51,7.57,7.57,0,0,0,.83-3.61,7.86,7.86,0,0,0-.8-3.58,6.26,6.26,0,0,0-2.21-2.48,6,6,0,0,0-3.25-.9,5.9,5.9,0,0,0-3.25.9,6.3,6.3,0,0,0-2.23,2.48,8.29,8.29,0,0,0,0,7.19,6.63,6.63,0,0,0,2.23,2.51A5.83,5.83,0,0,0,132.81,183.05Z"
        transform="translate(-7.8 -3.48)" />
    <path class="cls-11"
        d="M147.31,186.34V165.81h4.07v6.45l-.39-1.57a7.1,7.1,0,0,1,1.47-2.69,7.85,7.85,0,0,1,2.39-1.92,6,6,0,0,1,2.79-.7,6.59,6.59,0,0,1,1.27.12,5.45,5.45,0,0,1,1,.27l-1.05,4.39a5.77,5.77,0,0,0-1-.34,4.3,4.3,0,0,0-1.12-.14,5.12,5.12,0,0,0-2,.41,5.35,5.35,0,0,0-1.68,1.13,5.71,5.71,0,0,0-1.16,1.69,5.1,5.1,0,0,0-.43,2.09v11.34Z"
        transform="translate(-7.8 -3.48)" />
    <path class="cls-11"
        d="M171.8,186.73a11.28,11.28,0,0,1-5.61-1.35,9.92,9.92,0,0,1-3.83-3.69,10.36,10.36,0,0,1-1.39-5.4,12,12,0,0,1,.78-4.42,10.74,10.74,0,0,1,2.17-3.47,9.65,9.65,0,0,1,3.32-2.26,11,11,0,0,1,4.21-.8,9,9,0,0,1,3.71.77,9.16,9.16,0,0,1,3,2.09,9.32,9.32,0,0,1,2,3.14,10.52,10.52,0,0,1,.65,4l0,1.72H163.94l-.91-3.21h14.21l-.6.67v-1a4.52,4.52,0,0,0-.86-2.31,5.45,5.45,0,0,0-1.87-1.6,5.33,5.33,0,0,0-2.47-.59,7.43,7.43,0,0,0-3.56.79,5.15,5.15,0,0,0-2.19,2.35A9,9,0,0,0,165,176a7.41,7.41,0,0,0,.9,3.73,6.1,6.1,0,0,0,2.54,2.44,8,8,0,0,0,3.79.87,7.74,7.74,0,0,0,2.83-.52,9.67,9.67,0,0,0,2.83-1.83l2,2.86a9.32,9.32,0,0,1-2.29,1.64,14.16,14.16,0,0,1-2.86,1.12A10.48,10.48,0,0,1,171.8,186.73Z"
        transform="translate(-7.8 -3.48)" />
    <path class="cls-11"
        d="M185.76,193.34l-1.48-1.79a8,8,0,0,0,2.22-1.8,3,3,0,0,0,.87-1.76,1.67,1.67,0,0,0-.2-.77,6.07,6.07,0,0,0-.83-1,4.66,4.66,0,0,1-1-1.25,2.55,2.55,0,0,1-.23-1.1,1.91,1.91,0,0,1,.66-1.51,2.55,2.55,0,0,1,1.73-.56,3,3,0,0,1,1.78.56,3.7,3.7,0,0,1,1.25,1.57,5.51,5.51,0,0,1,.45,2.29,7,7,0,0,1-.39,2.27,7.82,7.82,0,0,1-1.09,2,9.76,9.76,0,0,1-1.65,1.69A7.34,7.34,0,0,1,185.76,193.34Z"
        transform="translate(-7.8 -3.48)" />
    <path class="cls-11"
        d="M215.26,186.73a9.48,9.48,0,0,1-5.1-1.4,10.19,10.19,0,0,1-3.56-3.83,11.93,11.93,0,0,1,0-10.87,10.11,10.11,0,0,1,3.56-3.83,9.32,9.32,0,0,1,5.1-1.41,11.12,11.12,0,0,1,5,1.12,8.17,8.17,0,0,1,3.43,3l-2.23,2.74a7.54,7.54,0,0,0-1.6-1.65,8.26,8.26,0,0,0-2.08-1.17,5.69,5.69,0,0,0-2.12-.43,6.27,6.27,0,0,0-3.34.91,6.57,6.57,0,0,0-2.34,2.53,7.37,7.37,0,0,0-.86,3.6,7.07,7.07,0,0,0,.9,3.57,7,7,0,0,0,2.39,2.52,6.1,6.1,0,0,0,3.29,1,6.22,6.22,0,0,0,2.05-.35,7.2,7.2,0,0,0,1.95-1.06,9.82,9.82,0,0,0,1.76-1.72l2.23,2.74a9.29,9.29,0,0,1-3.58,2.9A11.44,11.44,0,0,1,215.26,186.73Z"
        transform="translate(-7.8 -3.48)" />
    <path class="cls-11"
        d="M227.47,186.34V165.81h4.07v6.45l-.39-1.57a7.1,7.1,0,0,1,1.47-2.69,8,8,0,0,1,2.39-1.92,6,6,0,0,1,2.79-.7,6.52,6.52,0,0,1,1.27.12,5.88,5.88,0,0,1,1,.27L239,170.16a5.92,5.92,0,0,0-1-.34,4.41,4.41,0,0,0-1.12-.14,5.05,5.05,0,0,0-2,.41,5.39,5.39,0,0,0-1.69,1.13,5.71,5.71,0,0,0-1.16,1.69,5.1,5.1,0,0,0-.43,2.09v11.34Z"
        transform="translate(-7.8 -3.48)" />
    <path class="cls-11"
        d="M252,186.73a11.28,11.28,0,0,1-5.61-1.35,9.92,9.92,0,0,1-3.83-3.69,10.36,10.36,0,0,1-1.39-5.4,12,12,0,0,1,.78-4.42,10.74,10.74,0,0,1,2.17-3.47,9.56,9.56,0,0,1,3.32-2.26,11,11,0,0,1,4.21-.8,9,9,0,0,1,3.71.77,9.19,9.19,0,0,1,4.95,5.23,10.72,10.72,0,0,1,.65,4l0,1.72H244.09l-.91-3.21h14.21l-.6.67v-1a4.52,4.52,0,0,0-.86-2.31,5.39,5.39,0,0,0-1.88-1.6,5.26,5.26,0,0,0-2.46-.59,7.43,7.43,0,0,0-3.56.79,5.1,5.1,0,0,0-2.19,2.35,8.85,8.85,0,0,0-.74,3.82,7.31,7.31,0,0,0,.9,3.73,6.1,6.1,0,0,0,2.54,2.44,8,8,0,0,0,3.79.87,7.78,7.78,0,0,0,2.83-.52,9.67,9.67,0,0,0,2.83-1.83l2,2.86a9.32,9.32,0,0,1-2.29,1.64,14.16,14.16,0,0,1-2.86,1.12A10.43,10.43,0,0,1,252,186.73Z"
        transform="translate(-7.8 -3.48)" />
    <path class="cls-11"
        d="M273.19,186.73a8.24,8.24,0,0,1-4.64-1.4,10,10,0,0,1-3.34-3.83A11.7,11.7,0,0,1,264,176a11.54,11.54,0,0,1,1.26-5.49,9.8,9.8,0,0,1,3.44-3.77,8.91,8.91,0,0,1,4.87-1.37,8.78,8.78,0,0,1,2.93.48,7.3,7.3,0,0,1,4,3.25,5.81,5.81,0,0,1,.79,2.34l-.9-.31v-5.31h4.07v20.53h-4.07v-4.88l.94-.27a5.59,5.59,0,0,1-.95,2.05,8.22,8.22,0,0,1-1.84,1.78,8.9,8.9,0,0,1-5.29,1.68Zm1.06-3.72a6,6,0,0,0,3.25-.9,6.22,6.22,0,0,0,2.21-2.49,7.8,7.8,0,0,0,.8-3.61,7.71,7.71,0,0,0-.8-3.56A6.37,6.37,0,0,0,277.5,170a6,6,0,0,0-3.25-.9,5.64,5.64,0,0,0-3.19.9,6.16,6.16,0,0,0-2.18,2.47,7.59,7.59,0,0,0-.8,3.56,7.9,7.9,0,0,0,.8,3.61,6.39,6.39,0,0,0,2.18,2.49A5.72,5.72,0,0,0,274.25,183Z"
        transform="translate(-7.8 -3.48)" />
    <path class="cls-11"
        d="M290.68,193.34l-1.49-1.79a8.18,8.18,0,0,0,2.23-1.8,3,3,0,0,0,.86-1.76,1.67,1.67,0,0,0-.2-.77,6.42,6.42,0,0,0-.82-1,4.54,4.54,0,0,1-1-1.25,2.55,2.55,0,0,1-.23-1.1,1.88,1.88,0,0,1,.67-1.51,2.53,2.53,0,0,1,1.72-.56,3,3,0,0,1,1.78.56,3.79,3.79,0,0,1,1.26,1.57,5.67,5.67,0,0,1,.44,2.29,6.73,6.73,0,0,1-.39,2.27,7.82,7.82,0,0,1-1.09,2,9.09,9.09,0,0,1-1.65,1.69A7.57,7.57,0,0,1,290.68,193.34Z"
        transform="translate(-7.8 -3.48)" />
    <path class="cls-12"
        d="M319.07,186.69a8.13,8.13,0,0,1-4.68-1.39,9.84,9.84,0,0,1-3.27-3.83,13.4,13.4,0,0,1,0-11.13,9.71,9.71,0,0,1,3.32-3.81,8.54,8.54,0,0,1,4.82-1.39,8.43,8.43,0,0,1,2.72.43,7,7,0,0,1,2.17,1.19,8.36,8.36,0,0,1,1.61,1.75,7.19,7.19,0,0,1,1,2.13l-1.29-.16v-4.92h6.21v20.77h-6.34v-5l1.41,0a7.28,7.28,0,0,1-1,2.08,7.88,7.88,0,0,1-1.73,1.73,8.35,8.35,0,0,1-4.91,1.6Zm1.73-5.29a4.58,4.58,0,0,0,2.5-.66,4.39,4.39,0,0,0,1.65-1.9,6.71,6.71,0,0,0,.59-2.91A6.79,6.79,0,0,0,325,173a4.54,4.54,0,0,0-1.65-1.91,4.44,4.44,0,0,0-2.5-.69,4.3,4.3,0,0,0-2.45.69,4.67,4.67,0,0,0-1.61,1.91,6.65,6.65,0,0,0-.6,2.92,6.57,6.57,0,0,0,.6,2.91,4.51,4.51,0,0,0,1.61,1.9A4.36,4.36,0,0,0,320.8,181.4Z"
        transform="translate(-7.8 -3.48)" />
    <path class="cls-12"
        d="M337.18,195V165.57h5.95l.23,4.65-1.17-.35a4.64,4.64,0,0,1,1.33-2.34,7.75,7.75,0,0,1,2.69-1.7,9,9,0,0,1,3.42-.65,8.32,8.32,0,0,1,4.74,1.39,9.59,9.59,0,0,1,3.26,3.79,12.31,12.31,0,0,1,1.19,5.57,12.52,12.52,0,0,1-1.19,5.56,9.49,9.49,0,0,1-3.29,3.81,8.42,8.42,0,0,1-4.79,1.39,8.57,8.57,0,0,1-3.36-.66,8,8,0,0,1-2.69-1.79,5.59,5.59,0,0,1-1.45-2.47l1.45-.55V195ZM348,181.4a4.37,4.37,0,0,0,2.46-.68,4.6,4.6,0,0,0,1.65-1.91,6.55,6.55,0,0,0,.58-2.9,6.77,6.77,0,0,0-.58-2.87,4.61,4.61,0,0,0-1.62-1.91,4.37,4.37,0,0,0-2.48-.69,4.77,4.77,0,0,0-2.51.66,4.49,4.49,0,0,0-1.65,1.91,6.79,6.79,0,0,0-.59,2.9,6.61,6.61,0,0,0,.59,2.9,4.74,4.74,0,0,0,1.65,1.91A4.46,4.46,0,0,0,348,181.4Z"
        transform="translate(-7.8 -3.48)" />
    <path class="cls-12"
        d="M363,186.34V165.57h6l.27,6.77L368,171.05a7.92,7.92,0,0,1,1.55-3,8.36,8.36,0,0,1,2.52-2.12,6.31,6.31,0,0,1,3.09-.78,6.79,6.79,0,0,1,1.31.12c.4.08.78.17,1.12.27l-1.73,6.92a3.74,3.74,0,0,0-1.16-.45,6.3,6.3,0,0,0-1.51-.17,4.27,4.27,0,0,0-1.61.29,3.32,3.32,0,0,0-1.25.84,4,4,0,0,0-.8,1.3,4.62,4.62,0,0,0-.29,1.68v10.4Z"
        transform="translate(-7.8 -3.48)" />
    <path class="cls-12"
        d="M389.8,186.73a12.3,12.3,0,0,1-6-1.39,10.08,10.08,0,0,1-3.95-3.79,10.65,10.65,0,0,1-1.4-5.49,11.93,11.93,0,0,1,.78-4.38,10.78,10.78,0,0,1,2.19-3.47,9.64,9.64,0,0,1,3.34-2.26,11.09,11.09,0,0,1,4.25-.8,10.1,10.1,0,0,1,4,.78,9.55,9.55,0,0,1,3.14,2.19,9.79,9.79,0,0,1,2,3.32,10.9,10.9,0,0,1,.62,4.18l0,1.68H382.24l-.91-3.52h12.36l-.66.75v-.79a3.67,3.67,0,0,0-.61-1.74,3.48,3.48,0,0,0-1.39-1.18,4.31,4.31,0,0,0-2-.44,5.29,5.29,0,0,0-2.6.61,4,4,0,0,0-1.62,1.77,6.64,6.64,0,0,0-.55,2.83,5.9,5.9,0,0,0,.73,3,4.7,4.7,0,0,0,2.12,2,7.33,7.33,0,0,0,3.3.71,6.87,6.87,0,0,0,2.36-.39,8.9,8.9,0,0,0,2.25-1.34l2.94,4.14a12.46,12.46,0,0,1-2.57,1.73,13.73,13.73,0,0,1-2.79,1A13.32,13.32,0,0,1,389.8,186.73Z"
        transform="translate(-7.8 -3.48)" />
    <path class="cls-12"
        d="M402.82,186.34V165.57h5.95l.2,4.22-1.25.47a6.08,6.08,0,0,1,1.55-2.56,8.46,8.46,0,0,1,2.68-1.86,7.87,7.87,0,0,1,3.29-.7,7.53,7.53,0,0,1,3.95,1,6,6,0,0,1,2.43,2.85,11.47,11.47,0,0,1,.82,4.64v12.75h-6.29V174.09a5.37,5.37,0,0,0-.36-2.07,2.36,2.36,0,0,0-1.07-1.23,3.52,3.52,0,0,0-1.78-.38,4.2,4.2,0,0,0-1.53.26,3.37,3.37,0,0,0-1.21.74,3.54,3.54,0,0,0-.8,1.12,3.32,3.32,0,0,0-.3,1.38v12.43h-6.28Z"
        transform="translate(-7.8 -3.48)" />
    <path class="cls-12"
        d="M435.53,186.77a8.42,8.42,0,0,1-4.79-1.39,9.45,9.45,0,0,1-3.3-3.83,13.33,13.33,0,0,1,0-11.14,9.76,9.76,0,0,1,3.31-3.86,8.55,8.55,0,0,1,4.86-1.4,8.72,8.72,0,0,1,2.7.43,8.87,8.87,0,0,1,2.34,1.18,6.83,6.83,0,0,1,1.73,1.7,4.19,4.19,0,0,1,.78,2l-1.48.35V157.4H448v28.94h-5.83l-.35-4.73,1.26.19a4.15,4.15,0,0,1-.77,1.87,6.78,6.78,0,0,1-1.66,1.58,8.69,8.69,0,0,1-2.34,1.09A9.1,9.1,0,0,1,435.53,186.77Zm1.6-5.2a4.45,4.45,0,0,0,2.51-.7,4.62,4.62,0,0,0,1.62-2,7,7,0,0,0,.57-2.93,7.12,7.12,0,0,0-.57-3,4.59,4.59,0,0,0-1.62-1.95,4.4,4.4,0,0,0-2.51-.7,4.28,4.28,0,0,0-2.48.7A4.73,4.73,0,0,0,433,173a7,7,0,0,0-.59,3,6.81,6.81,0,0,0,.59,2.93,4.89,4.89,0,0,0,1.62,2A4.44,4.44,0,0,0,437.13,181.57Z"
        transform="translate(-7.8 -3.48)" />
    <path class="cls-12"
        d="M463.14,186.73a12.3,12.3,0,0,1-6-1.39,10,10,0,0,1-3.95-3.79,10.56,10.56,0,0,1-1.4-5.49,11.73,11.73,0,0,1,.78-4.38,10.59,10.59,0,0,1,2.18-3.47,9.68,9.68,0,0,1,3.35-2.26,11.06,11.06,0,0,1,4.25-.8,10,10,0,0,1,4,.78,9.49,9.49,0,0,1,3.15,2.19,9.61,9.61,0,0,1,2,3.32,10.71,10.71,0,0,1,.62,4.18l0,1.68H455.57l-.9-3.52H467l-.66.75v-.79a3.56,3.56,0,0,0-.6-1.74,3.48,3.48,0,0,0-1.39-1.18,4.31,4.31,0,0,0-2-.44,5.26,5.26,0,0,0-2.6.61,3.87,3.87,0,0,0-1.62,1.77,6.64,6.64,0,0,0-.55,2.83,6,6,0,0,0,.72,3,4.8,4.8,0,0,0,2.12,2,7.38,7.38,0,0,0,3.31.71,6.87,6.87,0,0,0,2.36-.39,8.9,8.9,0,0,0,2.25-1.34l2.94,4.14a12.26,12.26,0,0,1-2.58,1.73,13.31,13.31,0,0,1-2.79,1A13,13,0,0,1,463.14,186.73Z"
        transform="translate(-7.8 -3.48)" />
    <line class="cls-13" x1="1260" y1="173.15" x2="507.01" y2="173.15" />
    <rect class="cls-11" x="507.01" y="169.78" width="752.99" height="6.74" />
</svg>